<?xml version="1.0" encoding="utf-8"?>
<!-- Generator: Adobe Illustrator 16.0.0, SVG Export Plug-In . SVG Version: 6.00 Build 0)  -->
<!DOCTYPE svg PUBLIC "-//W3C//DTD SVG 1.1//EN" "http://www.w3.org/Graphics/SVG/1.1/DTD/svg11.dtd">
<svg version="1.1" id="Layer_1" xmlns="http://www.w3.org/2000/svg" xmlns:xlink="http://www.w3.org/1999/xlink" x="0px" y="0px"
	 width="200px" height="39.493px" viewBox="0 0 200 39.493" enable-background="new 0 0 200 39.493" xml:space="preserve">
<g>
	<path d="M25.292,29.386H8.759l-4.25,10.106H0v-0.104c0.363-0.467,1.503-2.021,2.902-5.286L15.133,5.649l-0.57-1.347
		c-0.881-2.177-1.659-3.473-2.436-4.198V0h6.841l14.667,34.155c1.399,3.213,2.333,4.768,2.747,5.234v0.104h-6.789L25.292,29.386z
		 M23.996,26.38l-7.049-16.43l-6.893,16.43H23.996z"/>
	<path d="M55.195,19.28c3.11-1.192,5.287-4.095,5.287-8.707c0-5.494-3.991-8.033-8.707-8.033h-4.924v36.953h-7.152v-0.104
		c0.363-0.674,1.192-2.125,1.192-5.441V5.545c0-3.317-0.829-4.768-1.192-5.442V0h14.512c5.649,0,12.49,2.695,12.49,10.158
		c0,6.945-5.234,9.951-10.521,10.521l10.158,14.253c1.659,2.332,3.524,3.938,4.198,4.457v0.104H62.71L48.665,19.54l5.131-2.229
		L55.195,19.28z"/>
	<path d="M82.715,39.389v0.104h-8.344v-0.104c0.363-0.674,1.192-2.125,1.192-5.441V5.545c0-3.317-0.829-4.768-1.192-5.442V0h8.344
		v0.104c-0.362,0.674-1.192,2.125-1.192,5.442v28.402C81.523,37.264,82.353,38.715,82.715,39.389z"/>
	<path d="M106.504,39.389v0.104h-8.345v-0.104c0.363-0.674,1.192-2.125,1.192-5.441V2.54c-4.976,0.622-10.21,2.28-11.92,3.369
		L88.208,0h28.247l0.776,5.908c-1.658-1.088-6.893-2.747-11.92-3.369v31.408C105.312,37.264,106.141,38.715,106.504,39.389z"/>
	<path d="M146.515,39.493h-28.609v-0.104l20.887-36.694c-7.411,0.363-12.594,1.088-17.311,3.213L122.259,0h24.67v0.104
		L126.042,36.85c8.5-0.26,15.911-0.83,21.25-3.266L146.515,39.493z"/>
	<path d="M160.352,39.389v0.104h-8.344v-0.104c0.362-0.674,1.191-2.125,1.191-5.441V5.545c0-3.317-0.829-4.768-1.191-5.442V0h8.344
		v0.104c-0.362,0.674-1.191,2.125-1.191,5.442v28.402C159.16,37.264,159.989,38.715,160.352,39.389z"/>
	<path d="M188.909,29.386h-16.534l-4.249,10.106h-4.51v-0.104c0.363-0.467,1.504-2.021,2.902-5.286L178.75,5.649l-0.569-1.347
		c-0.882-2.177-1.659-3.473-2.437-4.198V0h6.842l14.667,34.155c1.399,3.213,2.332,4.768,2.747,5.234v0.104h-6.79L188.909,29.386z
		 M187.613,26.38l-7.049-16.43l-6.894,16.43H187.613z"/>
</g>
</svg>
